<svg style="max-height: 500px" version="1.2" xmlns="http://www.w3.org/2000/svg" viewBox="627.5857965616046 1074.99684 39.19731232091691 37.10280000000001" width="39.19731232091691" height="37.10280000000001">
	<style>
		.s0 { fill: #f38120;stroke: #000000;stroke-miterlimit:10;stroke-width: .4 } 
		.s1 { fill: #ffc414;stroke: #000000;stroke-miterlimit:10;stroke-width: .4 } 
	</style>
	<g id="Layer 1">
		<g id="&lt;Group&gt;">
			<g id="&lt;Group&gt;">
				<g id="-e-&lt;Group&gt;">
					<path id="&lt;Compound Path&gt;" fill-rule="evenodd" class="s0" d="m647.1 1075.86c0.88 1.13 1.72 2.3 2.38 3.58 1.64 3.15 2.39 6.86 1.29 10.32 0.06 0.04 0.65-0.38 0.75-0.44 3.7-2.15 8.08-2.12 12.09-0.88 0.4 0.12 1.07 0.33 1.42 0.5 0.14 0.07 0.18 0.13 0.13 0.28-0.07 0.18-0.56 0.84-0.7 1.04-1.95 2.72-4.86 5.19-8.1 6.17-1.04 0.32-2.09 0.44-3.17 0.52-0.02 0.09 0.03 0.09 0.08 0.13 0.49 0.5 1.1 0.92 1.6 1.48 2.57 2.9 3.77 7.61 3.47 11.43-0.01 0.1-0.04 0.39-0.12 0.42-0.12 0.04-0.96-0.22-1.15-0.28-4.35-1.31-8.48-4.3-10.03-8.7-0.29 0.49-0.46 1.04-0.72 1.56-1.86 3.61-5.95 6.25-9.81 7.28-0.13 0.03-0.74 0.22-0.77 0.07-0.04-0.79-0.08-1.62-0.05-2.41 0.17-3.79 1.55-7.65 4.37-10.26 0.21-0.2 0.5-0.38 0.71-0.59 0.04-0.04 0.09-0.04 0.07-0.13-0.04-0.06-1.3-0.1-1.5-0.13-2.65-0.38-5.1-1.78-7.05-3.53-1.37-1.22-2.5-2.64-3.48-4.18q0.08-0.11 0.19-0.17c0.26-0.13 0.75-0.28 1.05-0.38 4.24-1.42 9.34-1.5 13.09 1.2 0.09-0.06 0.08-0.11 0.07-0.2-0.02-0.24-0.2-0.69-0.25-0.96-0.77-3.88 0.59-7.92 2.77-11.11 0.38-0.56 0.83-1.07 1.2-1.63zm0.01 0.35c-0.12-0.06-0.37 0.29-0.44 0.38-3.8 4.56-5.35 11.71-1.26 16.58 0.05 0.06 0.31 0.33 0.34 0.33l0.73-0.36 0.03-0.12c-0.02-1.78-0.09-3.57 0.12-5.34l0.3-1.71 0.14-0.06 0.31 1.86c0.09 1.5 0.26 3.19 0.14 4.69-0.01 0.15-0.12 0.45-0.12 0.54 0.01 0.12 0.18 0.22 0.31 0.19 0.1-0.03 0.55-0.79 0.67-0.95 0.47-0.65 0.97-1.19 1.55-1.75 0.42-0.4 0.48-0.3 0.69-0.92 0.64-1.97 0.58-4.31 0.11-6.31-0.62-2.6-2-4.96-3.62-7.05zm-0.04 10.95l-0.14 0.03c-0.07 0.14-0.02 0.29-0.04 0.44-0.2 1.68-0.32 3.41-0.09 5.1q0 0.13 0 0.26c0.02 0.09 0.38 0.09 0.4 0q0-0.58 0.05-1.15 0.11-1.55 0-3.14c-0.04-0.51-0.16-1.02-0.18-1.54zm-3.64 3.05c-0.18-0.24-1.46-0.97-1.79-1.13-3.5-1.74-7.62-1.56-11.27-0.39-0.3 0.1-0.84 0.25-1.1 0.38-0.05 0.03-0.1 0.05-0.1 0.12 0 0.09 0.62 0.97 0.73 1.11 3.16 4.33 8.41 7.55 13.94 6 0.48-0.14 0.93-0.33 1.39-0.51l-0.16-0.94c-0.1-0.03-0.17-0.09-0.27-0.12-0.4-0.12-0.83-0.18-1.23-0.29-1.63-0.48-3.18-1.12-4.7-1.88-0.07-0.04-0.55-0.3-0.56-0.33-0.11-0.27 0.25-0.08 0.37-0.07 0.79 0.1 1.76 0.25 2.54 0.42 1.29 0.28 2.58 0.9 3.84 1.26 0.12 0.03 0.22 0.15 0.36 0.07 0.26-0.14-0.25-0.6-0.36-0.74q-0.73-1.03-1.29-2.15c-0.1-0.2-0.24-0.67-0.34-0.81zm19.64 1.45q0.31-0.36 0.6-0.72c0.3-0.38 1-1.24 1.18-1.63q0.08-0.14-0.04-0.22c-3.15-1.18-6.63-1.72-9.94-0.91-2.59 0.64-4.92 2.15-6.43 4.35-0.1 0.15-0.46 0.63-0.43 0.78l0.69 0.63c2.22-0.96 4.59-1.61 7-1.86 0.02 0.1-0.14 0.17-0.21 0.21-1.96 1.14-4.26 1.92-6.46 2.44-0.13 0.01-0.18 0.29-0.1 0.35 1.06 0.28 2.05 0.62 3.02 1.13 0.16 0.09 0.65 0.44 0.74 0.46 0.46 0.12 1.8-0.04 2.31-0.13 3.11-0.56 6.03-2.54 8.07-4.88zm-8.48 0.82c-1.49 0.18-3.01 0.59-4.43 1.11-0.23 0.08-1.2 0.43-1.33 0.54-0.13 0.12 0.03 0.41 0.14 0.41 1.45-0.37 2.88-0.8 4.26-1.38zm-9.4 2.06v-0.34q-0.87-0.43-1.81-0.73c-0.67-0.23-1.29-0.37-1.97-0.54-0.61-0.15-1.22-0.39-1.85-0.36l0.3 0.21c1.48 0.62 2.95 1.28 4.53 1.65 0.26 0.06 0.53 0.13 0.8 0.11zm0.69 1.63c0.99 0.91 2.7 0.33 2.8-1.03 0.12-1.54-1.54-2.4-2.73-1.41-0.7 0.58-0.72 1.84-0.07 2.44zm7.26 1.07c-1.02-0.77-2.35-1.43-3.59-1.76-0.11-0.03-0.58-0.16-0.65-0.12-0.07 0.14-0.11 0.3-0.18 0.44-0.07 0.14-0.25 0.25-0.2 0.39 0.29 0.4 0.62 0.76 0.92 1.14 1.19 1.54 2.25 3.19 3 4.99-0.07 0.05-0.25-0.14-0.29-0.18-0.37-0.33-0.82-0.79-1.16-1.16-1.2-1.28-2.23-2.71-3.14-4.21-0.45-0.14-0.33 0.11-0.33 0.38 0.01 1.29 0 2.51-0.36 3.76 1.22 4.42 5.3 7.45 9.49 8.85 0.17 0.06 1.37 0.43 1.43 0.38 0.13-0.82 0.06-1.62 0-2.44-0.28-3.99-1.64-7.98-4.94-10.46zm-7.7-0.8c0.1-0.13 0.27-0.33 0.02-0.45-0.17-0.09-0.68 0.24-0.89 0.31-1.04 0.37-2.12 0.52-3.21 0.64-3.1 2.09-4.8 5.74-5.29 9.38-0.13 0.98-0.26 2.71-0.14 3.67 0.01 0.05 0 0.1 0.04 0.13 0.08 0.06 0.56-0.09 0.69-0.13 5.75-1.64 11.04-6.2 10.64-12.66-0.01-0.08-0.05-0.47-0.09-0.49-0.18 0.02-0.42 0.01-0.6-0.02-0.12-0.02-0.17-0.16-0.32-0.05-0.92 1.5-1.95 2.95-3.15 4.23-0.43 0.45-0.91 0.86-1.33 1.31-0.06 0.07-0.04 0.04-0.11-0.02 0.76-1.8 1.83-3.47 3.03-5.01 0.22-0.29 0.5-0.55 0.71-0.84zm6.29 4.89c-0.88-1.8-2.06-3.46-3.39-4.95-0.08-0.02-0.34 0.2-0.32 0.28 0.75 1.17 1.52 2.32 2.43 3.38 0.09 0.1 1.21 1.37 1.28 1.29zm-9.19-0.01c0.46-0.39 1.23-1.35 1.62-1.84 0.7-0.88 1.33-1.84 1.91-2.8-0.03-0.22-0.24-0.34-0.43-0.15-0.3 0.28-0.72 0.86-0.98 1.21-0.87 1.12-1.6 2.33-2.28 3.57-0.05 0.12 0.15 0.02 0.16 0.01z"/>
					<path id="&lt;Path&gt;" class="s0" d="m663.06 1091.66c-2.04 2.35-4.96 4.33-8.07 4.88-0.51 0.09-1.85 0.26-2.3 0.14-0.1-0.03-0.59-0.38-0.75-0.46-0.97-0.51-1.96-0.86-3.02-1.14-0.08-0.06-0.03-0.33 0.1-0.35 2.2-0.52 4.5-1.3 6.46-2.44 0.07-0.04 0.24-0.11 0.21-0.21-2.41 0.25-4.78 0.9-7 1.86l-0.69-0.63c-0.03-0.14 0.33-0.63 0.43-0.78 1.51-2.2 3.84-3.71 6.43-4.35 3.31-0.81 6.79-0.27 9.94 0.91q0.12 0.08 0.04 0.22c-0.17 0.39-0.88 1.26-1.18 1.63q-0.3 0.37-0.6 0.72z"/>
					<path id="&lt;Path&gt;" class="s0" d="m663.06 1091.66c-2.04 2.35-4.96 4.33-8.07 4.88-0.51 0.09-1.85 0.26-2.3 0.14-0.1-0.03-0.59-0.38-0.75-0.46-0.97-0.51-1.96-0.86-3.02-1.14-0.08-0.06-0.03-0.33 0.1-0.35 2.2-0.52 4.5-1.3 6.46-2.44 0.07-0.04 0.24-0.11 0.21-0.21-2.41 0.25-4.78 0.9-7 1.86l-0.69-0.63c-0.03-0.14 0.33-0.63 0.43-0.78 1.51-2.2 3.84-3.71 6.43-4.35 3.31-0.81 6.79-0.27 9.94 0.91q0.12 0.08 0.04 0.22c-0.17 0.39-0.88 1.26-1.18 1.63q-0.3 0.37-0.6 0.72z"/>
					<path id="&lt;Path&gt;" class="s0" d="m653.13 1097.24c3.29 2.48 4.66 6.48 4.94 10.47 0.05 0.81 0.13 1.62 0 2.43-0.06 0.05-1.26-0.32-1.44-0.38-4.18-1.4-8.26-4.43-9.48-8.85 0.36-1.24 0.37-2.47 0.36-3.76 0-0.27-0.12-0.51 0.33-0.37 0.91 1.49 1.94 2.92 3.13 4.2 0.35 0.37 0.79 0.83 1.17 1.16 0.04 0.04 0.22 0.23 0.29 0.18-0.76-1.79-1.82-3.45-3-4.98-0.3-0.39-0.64-0.75-0.92-1.15-0.05-0.14 0.13-0.25 0.2-0.38 0.07-0.15 0.1-0.31 0.18-0.45 0.06-0.04 0.54 0.09 0.65 0.12 1.24 0.34 2.56 0.99 3.59 1.76z"/>
					<path id="&lt;Path&gt;" class="s0" d="m653.13 1097.24c3.29 2.48 4.66 6.48 4.94 10.47 0.05 0.81 0.13 1.62 0 2.43-0.06 0.05-1.26-0.32-1.44-0.38-4.18-1.4-8.26-4.43-9.48-8.85 0.36-1.24 0.37-2.47 0.36-3.76 0-0.27-0.12-0.51 0.33-0.37 0.91 1.49 1.94 2.92 3.13 4.2 0.35 0.37 0.79 0.83 1.17 1.16 0.04 0.04 0.22 0.23 0.29 0.18-0.76-1.79-1.82-3.45-3-4.98-0.3-0.39-0.64-0.75-0.92-1.15-0.05-0.14 0.13-0.25 0.2-0.38 0.07-0.15 0.1-0.31 0.18-0.45 0.06-0.04 0.54 0.09 0.65 0.12 1.24 0.34 2.56 0.99 3.59 1.76z"/>
					<path id="&lt;Path&gt;" class="s0" d="m645.43 1096.44c-0.21 0.29-0.49 0.56-0.71 0.84-1.2 1.54-2.27 3.21-3.03 5.02 0.06 0.06 0.04 0.08 0.11 0.02 0.41-0.46 0.9-0.87 1.32-1.32 1.21-1.28 2.24-2.73 3.15-4.23 0.16-0.11 0.21 0.03 0.32 0.05 0.19 0.03 0.42 0.05 0.61 0.02 0.03 0.03 0.08 0.41 0.09 0.49 0.4 6.47-4.9 11.03-10.65 12.67-0.13 0.04-0.6 0.18-0.68 0.12-0.04-0.03-0.04-0.08-0.04-0.13-0.12-0.96 0-2.68 0.14-3.66 0.49-3.64 2.18-7.3 5.28-9.39 1.09-0.11 2.18-0.26 3.21-0.63 0.21-0.08 0.73-0.4 0.9-0.32 0.24 0.12 0.08 0.32-0.02 0.45z"/>
					<path id="&lt;Path&gt;" class="s0" d="m645.43 1095.44c-0.21 0.29-0.49 0.56-0.71 0.84-1.2 1.54-2.27 3.21-3.03 5.02 0.06 0.06 0.04 0.08 0.11 0.02 0.41-0.46 0.9-0.87 1.32-1.32 1.21-1.28 2.24-2.73 3.15-4.23 0.16-0.11 0.21 0.03 0.32 0.05 0.19 0.03 0.42 0.05 0.61 0.02 0.03 0.03 0.08 0.41 0.09 0.49 0.4 6.47-4.9 11.03-10.65 12.67-0.13 0.04-0.6 0.18-0.68 0.12-0.04-0.03-0.04-0.08-0.04-0.13-0.12-0.96 0-2.68 0.14-3.66 0.49-3.64 2.18-7.3 5.28-9.39 1.09-0.11 2.18-0.26 3.21-0.63 0.21-0.08 0.73-0.4 0.9-0.32 0.24 0.12 0.08 0.32-0.02 0.45z"/>
					<path id="&lt;Path&gt;" class="s0" d="m647.1 1076.21c1.63 2.09 3 4.45 3.62 7.05 0.47 2 0.53 4.35-0.11 6.31-0.21 0.62-0.27 0.52-0.69 0.92-0.58 0.56-1.08 1.1-1.55 1.76-0.12 0.15-0.57 0.92-0.67 0.94-0.13 0.04-0.3-0.07-0.31-0.19 0-0.09 0.11-0.38 0.12-0.54 0.12-1.5-0.05-3.18-0.14-4.69l-0.31-1.86-0.14 0.07-0.3 1.7c-0.21 1.77-0.14 3.56-0.12 5.34l-0.03 0.12-0.72 0.37c-0.04-0.01-0.3-0.28-0.34-0.33-4.1-4.88-2.55-12.03 1.25-16.59 0.07-0.09 0.32-0.44 0.44-0.38z"/>
					<path id="&lt;Path&gt;" class="s0" d="m647.1 1076.21c1.62 2.09 3 4.45 3.62 7.05 0.47 2 0.53 4.35-0.11 6.31-0.21 0.62-0.27 0.52-0.69 0.92-0.58 0.56-1.08 1.1-1.55 1.76-0.12 0.15-0.57 0.92-0.67 0.94-0.13 0.04-0.3-0.07-0.31-0.19 0-0.09 0.11-0.38 0.12-0.54 0.12-1.5-0.05-3.18-0.14-4.69l-0.31-1.86-0.14 0.07-0.3 1.7c-0.21 1.77-0.14 3.56-0.12 5.34l-0.03 0.12-0.72 0.37c-0.04-0.01-0.3-0.28-0.34-0.33-4.1-4.88-2.55-12.03 1.25-16.59 0.07-0.09 0.32-0.44 0.44-0.38z"/>
					<path id="&lt;Path&gt;" class="s0" d="m643.42 1090.22c0.1 0.13 0.24 0.6 0.33 0.8q0.57 1.13 1.3 2.15c0.11 0.15 0.63 0.6 0.36 0.75-0.14 0.08-0.24-0.05-0.36-0.08-1.25-0.36-2.54-0.97-3.84-1.26-0.78-0.17-1.75-0.32-2.54-0.41-0.12-0.02-0.48-0.21-0.37 0.06 0.01 0.03 0.49 0.29 0.56 0.33q2.27 1.15 4.7 1.88c0.4 0.12 0.83 0.18 1.23 0.29 0.1 0.03 0.18 0.1 0.27 0.12l0.16 0.94c-0.46 0.18-0.92 0.37-1.39 0.51-5.53 1.55-10.78-1.66-13.94-5.99-0.11-0.15-0.73-1.03-0.73-1.11 0-0.08 0.05-0.1 0.1-0.13 0.27-0.13 0.8-0.28 1.1-0.37 3.65-1.18 7.77-1.36 11.27 0.38 0.33 0.16 1.61 0.89 1.79 1.14z"/>
					<path id="&lt;Path&gt;" class="s0" d="m643.42 1090.22c0.1 0.13 0.24 0.6 0.33 0.8q0.57 1.13 1.3 2.15c0.11 0.15 0.63 0.6 0.36 0.75-0.14 0.08-0.24-0.05-0.36-0.08-1.26-0.36-2.54-0.97-3.84-1.26-0.78-0.17-1.75-0.32-2.54-0.41-0.12-0.02-0.48-0.21-0.37 0.06 0.01 0.03 0.49 0.29 0.56 0.33q2.27 1.15 4.7 1.88c0.4 0.12 0.83 0.18 1.23 0.29 0.1 0.03 0.18 0.1 0.27 0.12l0.16 0.94c-0.46 0.18-0.92 0.37-1.39 0.51-5.53 1.55-10.78-1.66-13.94-5.99-0.11-0.15-0.73-1.03-0.73-1.11 0-0.08 0.05-0.1 0.1-0.13 0.27-0.13 0.8-0.28 1.1-0.37 3.65-1.18 7.77-1.36 11.27 0.38 0.33 0.16 1.61 0.89 1.79 1.14z"/>
					<path id="&lt;Path&gt;" class="s1" d="m645.87 1096.18c-0.65-0.61-0.63-1.87 0.06-2.44 1.19-1 2.86-0.13 2.74 1.4-0.11 1.37-1.81 1.95-2.8 1.04z"/>
					<path id="&lt;Path&gt;" class="s1" d="m642.53 1101.32c-0.02 0.01-0.21 0.11-0.17-0.01 0.69-1.23 1.42-2.45 2.28-3.57 0.27-0.35 0.69-0.92 0.99-1.21 0.19-0.19 0.4-0.07 0.43 0.16-0.58 0.95-1.21 1.92-1.91 2.79-0.4 0.5-1.17 1.46-1.62 1.84z"/>
					<path id="&lt;Path&gt;" class="s1" d="m651.71 1101.34c-0.07 0.07-1.18-1.19-1.27-1.3-0.91-1.06-1.68-2.21-2.44-3.38-0.01-0.08 0.25-0.3 0.33-0.28 1.33 1.49 2.51 3.15 3.38 4.96z"/>
					<path id="&lt;Path&gt;" class="s1" d="m654.58 1092.48l-1.36 0.68c-1.38 0.58-2.81 1.02-4.26 1.38-0.11 0-0.26-0.28-0.13-0.41 0.12-0.11 1.09-0.46 1.33-0.54 1.41-0.51 2.93-0.93 4.42-1.11z"/>
					<path id="&lt;Path&gt;" class="s1" d="m645.18 1094.54c-0.28 0.03-0.54-0.05-0.81-0.11-1.57-0.36-3.05-1.03-4.52-1.65l-0.31-0.21c0.64-0.02 1.25 0.22 1.85 0.37 0.68 0.16 1.31 0.3 1.98 0.53q0.93 0.3 1.81 0.74z"/>
					<path id="&lt;Path&gt;" class="s1" d="m647.06 1087.16c0.02 0.52 0.14 1.03 0.18 1.55q0.11 1.58 0 3.13-0.05 0.57-0.04 1.15c-0.03 0.1-0.39 0.09-0.41 0q0.01-0.13 0-0.26c-0.23-1.69-0.11-3.41 0.09-5.1 0.02-0.14-0.03-0.3 0.04-0.44z"/>
				</g>
			</g>
		</g>
	</g>
</svg>